%TF.GenerationSoftware,KiCad,Pcbnew,(7.0.0)*%
%TF.CreationDate,2023-02-18T13:29:25+00:00*%
%TF.ProjectId,testing,74657374-696e-4672-9e6b-696361645f70,rev?*%
%TF.SameCoordinates,Original*%
%TF.FileFunction,Legend,Bot*%
%TF.FilePolarity,Positive*%
%FSLAX46Y46*%
G04 Gerber Fmt 4.6, Leading zero omitted, Abs format (unit mm)*
G04 Created by KiCad (PCBNEW (7.0.0)) date 2023-02-18 13:29:25*
%MOMM*%
%LPD*%
G01*
G04 APERTURE LIST*
%ADD10C,0.150000*%
%ADD11C,0.120000*%
G04 APERTURE END LIST*
D10*
%TO.C,C8*%
X247874142Y-107783333D02*
X247921761Y-107735714D01*
X247921761Y-107735714D02*
X247969380Y-107592857D01*
X247969380Y-107592857D02*
X247969380Y-107497619D01*
X247969380Y-107497619D02*
X247921761Y-107354762D01*
X247921761Y-107354762D02*
X247826523Y-107259524D01*
X247826523Y-107259524D02*
X247731285Y-107211905D01*
X247731285Y-107211905D02*
X247540809Y-107164286D01*
X247540809Y-107164286D02*
X247397952Y-107164286D01*
X247397952Y-107164286D02*
X247207476Y-107211905D01*
X247207476Y-107211905D02*
X247112238Y-107259524D01*
X247112238Y-107259524D02*
X247017000Y-107354762D01*
X247017000Y-107354762D02*
X246969380Y-107497619D01*
X246969380Y-107497619D02*
X246969380Y-107592857D01*
X246969380Y-107592857D02*
X247017000Y-107735714D01*
X247017000Y-107735714D02*
X247064619Y-107783333D01*
X247397952Y-108354762D02*
X247350333Y-108259524D01*
X247350333Y-108259524D02*
X247302714Y-108211905D01*
X247302714Y-108211905D02*
X247207476Y-108164286D01*
X247207476Y-108164286D02*
X247159857Y-108164286D01*
X247159857Y-108164286D02*
X247064619Y-108211905D01*
X247064619Y-108211905D02*
X247017000Y-108259524D01*
X247017000Y-108259524D02*
X246969380Y-108354762D01*
X246969380Y-108354762D02*
X246969380Y-108545238D01*
X246969380Y-108545238D02*
X247017000Y-108640476D01*
X247017000Y-108640476D02*
X247064619Y-108688095D01*
X247064619Y-108688095D02*
X247159857Y-108735714D01*
X247159857Y-108735714D02*
X247207476Y-108735714D01*
X247207476Y-108735714D02*
X247302714Y-108688095D01*
X247302714Y-108688095D02*
X247350333Y-108640476D01*
X247350333Y-108640476D02*
X247397952Y-108545238D01*
X247397952Y-108545238D02*
X247397952Y-108354762D01*
X247397952Y-108354762D02*
X247445571Y-108259524D01*
X247445571Y-108259524D02*
X247493190Y-108211905D01*
X247493190Y-108211905D02*
X247588428Y-108164286D01*
X247588428Y-108164286D02*
X247778904Y-108164286D01*
X247778904Y-108164286D02*
X247874142Y-108211905D01*
X247874142Y-108211905D02*
X247921761Y-108259524D01*
X247921761Y-108259524D02*
X247969380Y-108354762D01*
X247969380Y-108354762D02*
X247969380Y-108545238D01*
X247969380Y-108545238D02*
X247921761Y-108640476D01*
X247921761Y-108640476D02*
X247874142Y-108688095D01*
X247874142Y-108688095D02*
X247778904Y-108735714D01*
X247778904Y-108735714D02*
X247588428Y-108735714D01*
X247588428Y-108735714D02*
X247493190Y-108688095D01*
X247493190Y-108688095D02*
X247445571Y-108640476D01*
X247445571Y-108640476D02*
X247397952Y-108545238D01*
%TO.C,C4*%
X231186666Y-116532142D02*
X231234285Y-116579761D01*
X231234285Y-116579761D02*
X231377142Y-116627380D01*
X231377142Y-116627380D02*
X231472380Y-116627380D01*
X231472380Y-116627380D02*
X231615237Y-116579761D01*
X231615237Y-116579761D02*
X231710475Y-116484523D01*
X231710475Y-116484523D02*
X231758094Y-116389285D01*
X231758094Y-116389285D02*
X231805713Y-116198809D01*
X231805713Y-116198809D02*
X231805713Y-116055952D01*
X231805713Y-116055952D02*
X231758094Y-115865476D01*
X231758094Y-115865476D02*
X231710475Y-115770238D01*
X231710475Y-115770238D02*
X231615237Y-115675000D01*
X231615237Y-115675000D02*
X231472380Y-115627380D01*
X231472380Y-115627380D02*
X231377142Y-115627380D01*
X231377142Y-115627380D02*
X231234285Y-115675000D01*
X231234285Y-115675000D02*
X231186666Y-115722619D01*
X230329523Y-115960714D02*
X230329523Y-116627380D01*
X230567618Y-115579761D02*
X230805713Y-116294047D01*
X230805713Y-116294047D02*
X230186666Y-116294047D01*
%TO.C,C1*%
X216886142Y-108799333D02*
X216933761Y-108751714D01*
X216933761Y-108751714D02*
X216981380Y-108608857D01*
X216981380Y-108608857D02*
X216981380Y-108513619D01*
X216981380Y-108513619D02*
X216933761Y-108370762D01*
X216933761Y-108370762D02*
X216838523Y-108275524D01*
X216838523Y-108275524D02*
X216743285Y-108227905D01*
X216743285Y-108227905D02*
X216552809Y-108180286D01*
X216552809Y-108180286D02*
X216409952Y-108180286D01*
X216409952Y-108180286D02*
X216219476Y-108227905D01*
X216219476Y-108227905D02*
X216124238Y-108275524D01*
X216124238Y-108275524D02*
X216029000Y-108370762D01*
X216029000Y-108370762D02*
X215981380Y-108513619D01*
X215981380Y-108513619D02*
X215981380Y-108608857D01*
X215981380Y-108608857D02*
X216029000Y-108751714D01*
X216029000Y-108751714D02*
X216076619Y-108799333D01*
X216981380Y-109751714D02*
X216981380Y-109180286D01*
X216981380Y-109466000D02*
X215981380Y-109466000D01*
X215981380Y-109466000D02*
X216124238Y-109370762D01*
X216124238Y-109370762D02*
X216219476Y-109275524D01*
X216219476Y-109275524D02*
X216267095Y-109180286D01*
%TO.C,U1*%
X218751904Y-93367380D02*
X218751904Y-94176904D01*
X218751904Y-94176904D02*
X218704285Y-94272142D01*
X218704285Y-94272142D02*
X218656666Y-94319761D01*
X218656666Y-94319761D02*
X218561428Y-94367380D01*
X218561428Y-94367380D02*
X218370952Y-94367380D01*
X218370952Y-94367380D02*
X218275714Y-94319761D01*
X218275714Y-94319761D02*
X218228095Y-94272142D01*
X218228095Y-94272142D02*
X218180476Y-94176904D01*
X218180476Y-94176904D02*
X218180476Y-93367380D01*
X217180476Y-94367380D02*
X217751904Y-94367380D01*
X217466190Y-94367380D02*
X217466190Y-93367380D01*
X217466190Y-93367380D02*
X217561428Y-93510238D01*
X217561428Y-93510238D02*
X217656666Y-93605476D01*
X217656666Y-93605476D02*
X217751904Y-93653095D01*
%TO.C,C6*%
X239314666Y-115008142D02*
X239362285Y-115055761D01*
X239362285Y-115055761D02*
X239505142Y-115103380D01*
X239505142Y-115103380D02*
X239600380Y-115103380D01*
X239600380Y-115103380D02*
X239743237Y-115055761D01*
X239743237Y-115055761D02*
X239838475Y-114960523D01*
X239838475Y-114960523D02*
X239886094Y-114865285D01*
X239886094Y-114865285D02*
X239933713Y-114674809D01*
X239933713Y-114674809D02*
X239933713Y-114531952D01*
X239933713Y-114531952D02*
X239886094Y-114341476D01*
X239886094Y-114341476D02*
X239838475Y-114246238D01*
X239838475Y-114246238D02*
X239743237Y-114151000D01*
X239743237Y-114151000D02*
X239600380Y-114103380D01*
X239600380Y-114103380D02*
X239505142Y-114103380D01*
X239505142Y-114103380D02*
X239362285Y-114151000D01*
X239362285Y-114151000D02*
X239314666Y-114198619D01*
X238457523Y-114103380D02*
X238647999Y-114103380D01*
X238647999Y-114103380D02*
X238743237Y-114151000D01*
X238743237Y-114151000D02*
X238790856Y-114198619D01*
X238790856Y-114198619D02*
X238886094Y-114341476D01*
X238886094Y-114341476D02*
X238933713Y-114531952D01*
X238933713Y-114531952D02*
X238933713Y-114912904D01*
X238933713Y-114912904D02*
X238886094Y-115008142D01*
X238886094Y-115008142D02*
X238838475Y-115055761D01*
X238838475Y-115055761D02*
X238743237Y-115103380D01*
X238743237Y-115103380D02*
X238552761Y-115103380D01*
X238552761Y-115103380D02*
X238457523Y-115055761D01*
X238457523Y-115055761D02*
X238409904Y-115008142D01*
X238409904Y-115008142D02*
X238362285Y-114912904D01*
X238362285Y-114912904D02*
X238362285Y-114674809D01*
X238362285Y-114674809D02*
X238409904Y-114579571D01*
X238409904Y-114579571D02*
X238457523Y-114531952D01*
X238457523Y-114531952D02*
X238552761Y-114484333D01*
X238552761Y-114484333D02*
X238743237Y-114484333D01*
X238743237Y-114484333D02*
X238838475Y-114531952D01*
X238838475Y-114531952D02*
X238886094Y-114579571D01*
X238886094Y-114579571D02*
X238933713Y-114674809D01*
%TO.C,C2*%
X216464529Y-99809599D02*
X216512148Y-99761980D01*
X216512148Y-99761980D02*
X216559767Y-99619123D01*
X216559767Y-99619123D02*
X216559767Y-99523885D01*
X216559767Y-99523885D02*
X216512148Y-99381028D01*
X216512148Y-99381028D02*
X216416910Y-99285790D01*
X216416910Y-99285790D02*
X216321672Y-99238171D01*
X216321672Y-99238171D02*
X216131196Y-99190552D01*
X216131196Y-99190552D02*
X215988339Y-99190552D01*
X215988339Y-99190552D02*
X215797863Y-99238171D01*
X215797863Y-99238171D02*
X215702625Y-99285790D01*
X215702625Y-99285790D02*
X215607387Y-99381028D01*
X215607387Y-99381028D02*
X215559767Y-99523885D01*
X215559767Y-99523885D02*
X215559767Y-99619123D01*
X215559767Y-99619123D02*
X215607387Y-99761980D01*
X215607387Y-99761980D02*
X215655006Y-99809599D01*
X215655006Y-100190552D02*
X215607387Y-100238171D01*
X215607387Y-100238171D02*
X215559767Y-100333409D01*
X215559767Y-100333409D02*
X215559767Y-100571504D01*
X215559767Y-100571504D02*
X215607387Y-100666742D01*
X215607387Y-100666742D02*
X215655006Y-100714361D01*
X215655006Y-100714361D02*
X215750244Y-100761980D01*
X215750244Y-100761980D02*
X215845482Y-100761980D01*
X215845482Y-100761980D02*
X215988339Y-100714361D01*
X215988339Y-100714361D02*
X216559767Y-100142933D01*
X216559767Y-100142933D02*
X216559767Y-100761980D01*
%TO.C,C7*%
X247874142Y-100671333D02*
X247921761Y-100623714D01*
X247921761Y-100623714D02*
X247969380Y-100480857D01*
X247969380Y-100480857D02*
X247969380Y-100385619D01*
X247969380Y-100385619D02*
X247921761Y-100242762D01*
X247921761Y-100242762D02*
X247826523Y-100147524D01*
X247826523Y-100147524D02*
X247731285Y-100099905D01*
X247731285Y-100099905D02*
X247540809Y-100052286D01*
X247540809Y-100052286D02*
X247397952Y-100052286D01*
X247397952Y-100052286D02*
X247207476Y-100099905D01*
X247207476Y-100099905D02*
X247112238Y-100147524D01*
X247112238Y-100147524D02*
X247017000Y-100242762D01*
X247017000Y-100242762D02*
X246969380Y-100385619D01*
X246969380Y-100385619D02*
X246969380Y-100480857D01*
X246969380Y-100480857D02*
X247017000Y-100623714D01*
X247017000Y-100623714D02*
X247064619Y-100671333D01*
X246969380Y-101004667D02*
X246969380Y-101671333D01*
X246969380Y-101671333D02*
X247969380Y-101242762D01*
%TO.C,C3*%
X229156666Y-93272142D02*
X229204285Y-93319761D01*
X229204285Y-93319761D02*
X229347142Y-93367380D01*
X229347142Y-93367380D02*
X229442380Y-93367380D01*
X229442380Y-93367380D02*
X229585237Y-93319761D01*
X229585237Y-93319761D02*
X229680475Y-93224523D01*
X229680475Y-93224523D02*
X229728094Y-93129285D01*
X229728094Y-93129285D02*
X229775713Y-92938809D01*
X229775713Y-92938809D02*
X229775713Y-92795952D01*
X229775713Y-92795952D02*
X229728094Y-92605476D01*
X229728094Y-92605476D02*
X229680475Y-92510238D01*
X229680475Y-92510238D02*
X229585237Y-92415000D01*
X229585237Y-92415000D02*
X229442380Y-92367380D01*
X229442380Y-92367380D02*
X229347142Y-92367380D01*
X229347142Y-92367380D02*
X229204285Y-92415000D01*
X229204285Y-92415000D02*
X229156666Y-92462619D01*
X228823332Y-92367380D02*
X228204285Y-92367380D01*
X228204285Y-92367380D02*
X228537618Y-92748333D01*
X228537618Y-92748333D02*
X228394761Y-92748333D01*
X228394761Y-92748333D02*
X228299523Y-92795952D01*
X228299523Y-92795952D02*
X228251904Y-92843571D01*
X228251904Y-92843571D02*
X228204285Y-92938809D01*
X228204285Y-92938809D02*
X228204285Y-93176904D01*
X228204285Y-93176904D02*
X228251904Y-93272142D01*
X228251904Y-93272142D02*
X228299523Y-93319761D01*
X228299523Y-93319761D02*
X228394761Y-93367380D01*
X228394761Y-93367380D02*
X228680475Y-93367380D01*
X228680475Y-93367380D02*
X228775713Y-93319761D01*
X228775713Y-93319761D02*
X228823332Y-93272142D01*
%TO.C,C5*%
X235758666Y-92800142D02*
X235806285Y-92847761D01*
X235806285Y-92847761D02*
X235949142Y-92895380D01*
X235949142Y-92895380D02*
X236044380Y-92895380D01*
X236044380Y-92895380D02*
X236187237Y-92847761D01*
X236187237Y-92847761D02*
X236282475Y-92752523D01*
X236282475Y-92752523D02*
X236330094Y-92657285D01*
X236330094Y-92657285D02*
X236377713Y-92466809D01*
X236377713Y-92466809D02*
X236377713Y-92323952D01*
X236377713Y-92323952D02*
X236330094Y-92133476D01*
X236330094Y-92133476D02*
X236282475Y-92038238D01*
X236282475Y-92038238D02*
X236187237Y-91943000D01*
X236187237Y-91943000D02*
X236044380Y-91895380D01*
X236044380Y-91895380D02*
X235949142Y-91895380D01*
X235949142Y-91895380D02*
X235806285Y-91943000D01*
X235806285Y-91943000D02*
X235758666Y-91990619D01*
X234853904Y-91895380D02*
X235330094Y-91895380D01*
X235330094Y-91895380D02*
X235377713Y-92371571D01*
X235377713Y-92371571D02*
X235330094Y-92323952D01*
X235330094Y-92323952D02*
X235234856Y-92276333D01*
X235234856Y-92276333D02*
X234996761Y-92276333D01*
X234996761Y-92276333D02*
X234901523Y-92323952D01*
X234901523Y-92323952D02*
X234853904Y-92371571D01*
X234853904Y-92371571D02*
X234806285Y-92466809D01*
X234806285Y-92466809D02*
X234806285Y-92704904D01*
X234806285Y-92704904D02*
X234853904Y-92800142D01*
X234853904Y-92800142D02*
X234901523Y-92847761D01*
X234901523Y-92847761D02*
X234996761Y-92895380D01*
X234996761Y-92895380D02*
X235234856Y-92895380D01*
X235234856Y-92895380D02*
X235330094Y-92847761D01*
X235330094Y-92847761D02*
X235377713Y-92800142D01*
D11*
%TO.C,C8*%
X244842000Y-108661252D02*
X244842000Y-107238748D01*
X246662000Y-108661252D02*
X246662000Y-107238748D01*
%TO.C,C4*%
X231731252Y-119020000D02*
X230308748Y-119020000D01*
X231731252Y-117200000D02*
X230308748Y-117200000D01*
%TO.C,C1*%
X213854000Y-109677252D02*
X213854000Y-108254748D01*
X215674000Y-109677252D02*
X215674000Y-108254748D01*
%TO.C,U1*%
X239900000Y-96990000D02*
X239500000Y-96990000D01*
X220000000Y-96990000D02*
X220000000Y-95040001D01*
X219600000Y-96990000D02*
X220000000Y-96990000D01*
X239900000Y-97390000D02*
X239900000Y-96990000D01*
X219600000Y-97390000D02*
X219600000Y-96990000D01*
X239900000Y-110890000D02*
X239900000Y-111290000D01*
X219600000Y-110890000D02*
X219600000Y-111290000D01*
X239900000Y-111290000D02*
X239500000Y-111290000D01*
X219600000Y-111290000D02*
X220000000Y-111290000D01*
%TO.C,C6*%
X239859252Y-117496000D02*
X238436748Y-117496000D01*
X239859252Y-115676000D02*
X238436748Y-115676000D01*
%TO.C,C2*%
X213432387Y-100687518D02*
X213432387Y-99265014D01*
X215252387Y-100687518D02*
X215252387Y-99265014D01*
%TO.C,C7*%
X244842000Y-101549252D02*
X244842000Y-100126748D01*
X246662000Y-101549252D02*
X246662000Y-100126748D01*
%TO.C,C3*%
X229445252Y-91588000D02*
X228022748Y-91588000D01*
X229445252Y-89768000D02*
X228022748Y-89768000D01*
%TO.C,C5*%
X234880748Y-89768000D02*
X236303252Y-89768000D01*
X234880748Y-91588000D02*
X236303252Y-91588000D01*
%TD*%
M02*
