%TF.GenerationSoftware,KiCad,Pcbnew,(7.0.0)*%
%TF.CreationDate,2023-02-18T13:29:25+00:00*%
%TF.ProjectId,testing,74657374-696e-4672-9e6b-696361645f70,rev?*%
%TF.SameCoordinates,Original*%
%TF.FileFunction,Soldermask,Top*%
%TF.FilePolarity,Negative*%
%FSLAX46Y46*%
G04 Gerber Fmt 4.6, Leading zero omitted, Abs format (unit mm)*
G04 Created by KiCad (PCBNEW (7.0.0)) date 2023-02-18 13:29:25*
%MOMM*%
%LPD*%
G01*
G04 APERTURE LIST*
G04 Aperture macros list*
%AMRoundRect*
0 Rectangle with rounded corners*
0 $1 Rounding radius*
0 $2 $3 $4 $5 $6 $7 $8 $9 X,Y pos of 4 corners*
0 Add a 4 corners polygon primitive as box body*
4,1,4,$2,$3,$4,$5,$6,$7,$8,$9,$2,$3,0*
0 Add four circle primitives for the rounded corners*
1,1,$1+$1,$2,$3*
1,1,$1+$1,$4,$5*
1,1,$1+$1,$6,$7*
1,1,$1+$1,$8,$9*
0 Add four rect primitives between the rounded corners*
20,1,$1+$1,$2,$3,$4,$5,0*
20,1,$1+$1,$4,$5,$6,$7,0*
20,1,$1+$1,$6,$7,$8,$9,0*
20,1,$1+$1,$8,$9,$2,$3,0*%
G04 Aperture macros list end*
%ADD10R,1.600000X1.600000*%
%ADD11C,1.600000*%
%ADD12R,2.000000X2.000000*%
%ADD13RoundRect,0.250000X0.625000X-0.400000X0.625000X0.400000X-0.625000X0.400000X-0.625000X-0.400000X0*%
%ADD14RoundRect,0.225000X0.225000X-0.225000X0.225000X0.225000X-0.225000X0.225000X-0.225000X-0.225000X0*%
%ADD15C,5.600000*%
%ADD16RoundRect,0.225000X-0.225000X0.225000X-0.225000X-0.225000X0.225000X-0.225000X0.225000X0.225000X0*%
%ADD17R,1.700000X1.700000*%
%ADD18O,1.700000X1.700000*%
%ADD19RoundRect,0.250000X-0.625000X0.400000X-0.625000X-0.400000X0.625000X-0.400000X0.625000X0.400000X0*%
%ADD20O,1.500000X3.000000*%
%ADD21RoundRect,0.250001X1.099999X1.399999X-1.099999X1.399999X-1.099999X-1.399999X1.099999X-1.399999X0*%
%ADD22O,2.700000X3.300000*%
G04 APERTURE END LIST*
D10*
%TO.C,C15*%
X85295999Y-79499999D03*
D11*
X85296000Y-77000000D03*
%TD*%
D12*
%TO.C,TP2*%
X223399999Y-102615999D03*
%TD*%
D13*
%TO.C,R8*%
X97250000Y-95300000D03*
X97250000Y-92200000D03*
%TD*%
%TO.C,R3*%
X99000000Y-115050000D03*
X99000000Y-111950000D03*
%TD*%
D12*
%TO.C,TP11*%
X237496999Y-107187999D03*
%TD*%
D14*
%TO.C,RN9*%
X128750000Y-118040000D03*
X131750000Y-112960000D03*
X131750000Y-118040000D03*
X131750000Y-116770000D03*
X131750000Y-115500000D03*
X131750000Y-114230000D03*
X128750000Y-112960000D03*
X128750000Y-114230000D03*
X128750000Y-115500000D03*
X128750000Y-116770000D03*
%TD*%
D12*
%TO.C,TP3*%
X226955999Y-99567999D03*
%TD*%
D14*
%TO.C,RN7*%
X166500000Y-118040000D03*
X169500000Y-112960000D03*
X169500000Y-118040000D03*
X169500000Y-116770000D03*
X169500000Y-115500000D03*
X169500000Y-114230000D03*
X166500000Y-112960000D03*
X166500000Y-114230000D03*
X166500000Y-115500000D03*
X166500000Y-116770000D03*
%TD*%
D10*
%TO.C,C16*%
X179775999Y-71475112D03*
D11*
X179776000Y-68975113D03*
%TD*%
D13*
%TO.C,R4*%
X102750000Y-115050000D03*
X102750000Y-111950000D03*
%TD*%
D12*
%TO.C,TP9*%
X223399999Y-106147999D03*
%TD*%
D15*
%TO.C,REF\u002A\u002A*%
X65000000Y-69000000D03*
%TD*%
D12*
%TO.C,TP6*%
X226955999Y-109473999D03*
%TD*%
D10*
%TO.C,C19*%
X94185999Y-79499999D03*
D11*
X94186000Y-77000000D03*
%TD*%
D14*
%TO.C,RN8*%
X196750000Y-118040000D03*
X199750000Y-112960000D03*
X199750000Y-118040000D03*
X199750000Y-116770000D03*
X199750000Y-115500000D03*
X199750000Y-114230000D03*
X196750000Y-112960000D03*
X196750000Y-114230000D03*
X196750000Y-115500000D03*
X196750000Y-116770000D03*
%TD*%
D13*
%TO.C,R11*%
X93250000Y-115050000D03*
X93250000Y-111950000D03*
%TD*%
D16*
%TO.C,RN3*%
X144500000Y-90460000D03*
X141500000Y-95540000D03*
X141500000Y-90460000D03*
X141500000Y-91730000D03*
X141500000Y-93000000D03*
X141500000Y-94270000D03*
X144500000Y-95540000D03*
X144500000Y-94270000D03*
X144500000Y-93000000D03*
X144500000Y-91730000D03*
%TD*%
D15*
%TO.C,*%
X250000000Y-132000000D03*
%TD*%
%TO.C,*%
X250000000Y-69000000D03*
%TD*%
D17*
%TO.C,J3*%
X207148999Y-84332999D03*
D18*
X207148999Y-81792999D03*
X209688999Y-84332999D03*
X209688999Y-81792999D03*
X212228999Y-84332999D03*
X212228999Y-81792999D03*
X214768999Y-84332999D03*
X214768999Y-81792999D03*
X217308999Y-84332999D03*
X217308999Y-81792999D03*
X219848999Y-84332999D03*
X219848999Y-81792999D03*
X222388999Y-84332999D03*
X222388999Y-81792999D03*
X224928999Y-84332999D03*
X224928999Y-81792999D03*
X227468999Y-84332999D03*
X227468999Y-81792999D03*
X230008999Y-84332999D03*
X230008999Y-81792999D03*
%TD*%
D12*
%TO.C,TP4*%
X226955999Y-102615999D03*
%TD*%
D13*
%TO.C,R5*%
X106500000Y-115050000D03*
X106500000Y-111950000D03*
%TD*%
D12*
%TO.C,TP5*%
X230511999Y-100329999D03*
%TD*%
%TO.C,TP7*%
X230511999Y-103377999D03*
%TD*%
D16*
%TO.C,RN6*%
X104500000Y-90460000D03*
X101500000Y-95540000D03*
X101500000Y-90460000D03*
X101500000Y-91730000D03*
X101500000Y-93000000D03*
X101500000Y-94270000D03*
X104500000Y-95540000D03*
X104500000Y-94270000D03*
X104500000Y-93000000D03*
X104500000Y-91730000D03*
%TD*%
%TO.C,RN1*%
X197750000Y-90710000D03*
X194750000Y-95790000D03*
X194750000Y-90710000D03*
X194750000Y-91980000D03*
X194750000Y-93250000D03*
X194750000Y-94520000D03*
X197750000Y-95790000D03*
X197750000Y-94520000D03*
X197750000Y-93250000D03*
X197750000Y-91980000D03*
%TD*%
D12*
%TO.C,TP14*%
X226955999Y-106171999D03*
%TD*%
D19*
%TO.C,R7*%
X75250000Y-91950000D03*
X75250000Y-95050000D03*
%TD*%
D16*
%TO.C,RN5*%
X88000000Y-90460000D03*
X85000000Y-95540000D03*
X85000000Y-90460000D03*
X85000000Y-91730000D03*
X85000000Y-93000000D03*
X85000000Y-94270000D03*
X88000000Y-95540000D03*
X88000000Y-94270000D03*
X88000000Y-93000000D03*
X88000000Y-91730000D03*
%TD*%
%TO.C,RN2*%
X173000000Y-90710000D03*
X170000000Y-95790000D03*
X170000000Y-90710000D03*
X170000000Y-91980000D03*
X170000000Y-93250000D03*
X170000000Y-94520000D03*
X173000000Y-95790000D03*
X173000000Y-94520000D03*
X173000000Y-93250000D03*
X173000000Y-91980000D03*
%TD*%
D13*
%TO.C,R2*%
X162500000Y-117050000D03*
X162500000Y-113950000D03*
%TD*%
D12*
%TO.C,TP8*%
X230511999Y-108687999D03*
%TD*%
D15*
%TO.C,*%
X65000000Y-132000000D03*
%TD*%
D12*
%TO.C,TP13*%
X223399999Y-109449999D03*
%TD*%
D13*
%TO.C,R1*%
X158750000Y-117050000D03*
X158750000Y-113950000D03*
%TD*%
%TO.C,R10*%
X181250000Y-95550000D03*
X181250000Y-92450000D03*
%TD*%
D20*
%TO.C,J1*%
X75389999Y-106679999D03*
X77929999Y-106679999D03*
X80469999Y-106679999D03*
X83009999Y-106679999D03*
X85549999Y-106679999D03*
X88089999Y-106679999D03*
X90629999Y-106679999D03*
X93169999Y-106679999D03*
X95709999Y-106679999D03*
X98249999Y-106679999D03*
X100789999Y-106679999D03*
X103329999Y-106679999D03*
X105869999Y-106679999D03*
X108409999Y-106679999D03*
X110949999Y-106679999D03*
X113489999Y-106679999D03*
X116029999Y-106679999D03*
X118569999Y-106679999D03*
X121109999Y-106679999D03*
X123649999Y-106679999D03*
X126189999Y-106679999D03*
X128729999Y-106679999D03*
X131269999Y-106679999D03*
X133809999Y-106679999D03*
X136349999Y-106679999D03*
X138889999Y-106679999D03*
X141429999Y-106679999D03*
X143969999Y-106679999D03*
X146509999Y-106679999D03*
X149049999Y-106679999D03*
X151589999Y-106679999D03*
X75389999Y-101599999D03*
X77929999Y-101599999D03*
X80469999Y-101599999D03*
X83009999Y-101599999D03*
X85549999Y-101599999D03*
X88089999Y-101599999D03*
X90629999Y-101599999D03*
X93169999Y-101599999D03*
X95709999Y-101599999D03*
X98249999Y-101599999D03*
X100789999Y-101599999D03*
X103329999Y-101599999D03*
X105869999Y-101599999D03*
X108409999Y-101599999D03*
X110949999Y-101599999D03*
X113489999Y-101599999D03*
X116029999Y-101599999D03*
X118569999Y-101599999D03*
X121109999Y-101599999D03*
X123649999Y-101599999D03*
X126189999Y-101599999D03*
X128729999Y-101599999D03*
X131269999Y-101599999D03*
X133809999Y-101599999D03*
X136349999Y-101599999D03*
X138889999Y-101599999D03*
X141429999Y-101599999D03*
X143969999Y-101599999D03*
X146509999Y-101599999D03*
X149049999Y-101599999D03*
X151589999Y-101599999D03*
X161749999Y-106679999D03*
X164289999Y-106679999D03*
X166829999Y-106679999D03*
X169369999Y-106679999D03*
X171909999Y-106679999D03*
X174449999Y-106679999D03*
X176989999Y-106679999D03*
X179529999Y-106679999D03*
X182069999Y-106679999D03*
X184609999Y-106679999D03*
X187149999Y-106679999D03*
X189689999Y-106679999D03*
X192229999Y-106679999D03*
X194769999Y-106679999D03*
X197309999Y-106679999D03*
X199849999Y-106679999D03*
X202389999Y-106679999D03*
X204929999Y-106679999D03*
X161749999Y-101599999D03*
X164289999Y-101599999D03*
X166829999Y-101599999D03*
X169369999Y-101599999D03*
X171909999Y-101599999D03*
X174449999Y-101599999D03*
X176989999Y-101599999D03*
X179529999Y-101599999D03*
X182069999Y-101599999D03*
X184609999Y-101599999D03*
X187149999Y-101599999D03*
X189689999Y-101599999D03*
X192229999Y-101599999D03*
X194769999Y-101599999D03*
X197309999Y-101599999D03*
X199849999Y-101599999D03*
X202389999Y-101599999D03*
X204929999Y-101599999D03*
%TD*%
D10*
%TO.C,C17*%
X85295999Y-71999999D03*
D11*
X85296000Y-69500000D03*
%TD*%
D13*
%TO.C,R6*%
X110250000Y-115050000D03*
X110250000Y-111950000D03*
%TD*%
D12*
%TO.C,TP10*%
X234194999Y-108687999D03*
%TD*%
D17*
%TO.C,J4*%
X161724999Y-69999999D03*
D18*
X164264999Y-69999999D03*
%TD*%
D12*
%TO.C,TP1*%
X223399999Y-99567999D03*
%TD*%
D10*
%TO.C,C18*%
X93999999Y-71999999D03*
D11*
X94000000Y-69500000D03*
%TD*%
D12*
%TO.C,TP12*%
X237369999Y-103201999D03*
%TD*%
D13*
%TO.C,R9*%
X185250000Y-95550000D03*
X185250000Y-92450000D03*
%TD*%
D21*
%TO.C,J5*%
X150814000Y-76250000D03*
D22*
X146613999Y-76249999D03*
X142413999Y-76249999D03*
X138213999Y-76249999D03*
X134013999Y-76249999D03*
X129813999Y-76249999D03*
X125613999Y-76249999D03*
X121413999Y-76249999D03*
X117213999Y-76249999D03*
X113013999Y-76249999D03*
X108813999Y-76249999D03*
X104613999Y-76249999D03*
X150813999Y-70749999D03*
X146613999Y-70749999D03*
X142413999Y-70749999D03*
X138213999Y-70749999D03*
X134013999Y-70749999D03*
X129813999Y-70749999D03*
X125613999Y-70749999D03*
X121413999Y-70749999D03*
X117213999Y-70749999D03*
X113013999Y-70749999D03*
X108813999Y-70749999D03*
X104613999Y-70749999D03*
%TD*%
D16*
%TO.C,RN4*%
X124000000Y-90460000D03*
X121000000Y-95540000D03*
X121000000Y-90460000D03*
X121000000Y-91730000D03*
X121000000Y-93000000D03*
X121000000Y-94270000D03*
X124000000Y-95540000D03*
X124000000Y-94270000D03*
X124000000Y-93000000D03*
X124000000Y-91730000D03*
%TD*%
M02*
