M48
; DRILL file {KiCad (7.0.0)} date Sat Feb 18 13:29:44 2023
; FORMAT={-:-/ absolute / inch / decimal}
; #@! TF.CreationDate,2023-02-18T13:29:44+00:00
; #@! TF.GenerationSoftware,Kicad,Pcbnew,(7.0.0)
; #@! TF.FileFunction,Plated,1,2,PTH
FMAT,2
INCH
; #@! TA.AperFunction,Plated,PTH,ViaDrill
T1C0.0157
; #@! TA.AperFunction,Plated,PTH,ComponentDrill
T2C0.0315
; #@! TA.AperFunction,Plated,PTH,ComponentDrill
T3C0.0394
; #@! TA.AperFunction,Plated,PTH,ComponentDrill
T4C0.0551
; #@! TA.AperFunction,Plated,PTH,ComponentDrill
T5C0.1260
%
G90
G05
T1
X2.3524Y-3.878
X2.5728Y-4.4265
X2.5778Y-4.5165
X2.5778Y-4.6215
X2.5928Y-4.3615
X2.9728Y-4.3203
X3.0315Y-3.5827
X3.2283Y-3.3071
X3.5378Y-3.4953
X3.6728Y-5.0551
X3.7205Y-3.3268
X3.9075Y-3.5827
X4.1142Y-3.4547
X4.1831Y-4.7441
X4.8819Y-3.4744
X5.1278Y-5.0551
X5.689Y-3.4843
X5.7677Y-5.0551
X6.4764Y-5.3937
X6.6128Y-5.0551
X6.7528Y-3.1703
X7.5Y-3.0315
X7.5801Y-2.9514
X7.7984Y-5.0551
X7.874Y-3.4449
X7.9331Y-3.3071
X8.189Y-3.878
X8.3071Y-3.5039
X8.3428Y-3.9915
X8.3528Y-3.8765
X8.3778Y-4.2365
X8.4449Y-4.4291
X8.6909Y-4.1142
X8.8053Y-4.57
X8.8853Y-3.53
X8.9953Y-4.72
X9.0238Y-3.4561
X9.1453Y-4.71
X9.2153Y-3.49
X9.2883Y-3.4131
X9.3353Y-3.49
X9.337Y-4.66
X9.4753Y-4.52
X9.6083Y-3.1031
X9.6453Y-4.38
X9.6753Y-3.85
X9.6853Y-4.66
X9.7553Y-4.04
X9.7553Y-4.19
X9.9153Y-4.19
X9.9553Y-3.85
X10.0394Y-3.9862
T2
X3.3581Y-2.7362
X3.3581Y-2.8346
X3.3581Y-3.0315
X3.3581Y-3.1299
X3.7008Y-2.7362
X3.7008Y-2.8346
X3.7081Y-3.0315
X3.7081Y-3.1299
X7.0778Y-2.7156
X7.0778Y-2.814
T3
X2.9681Y-4.0
X2.9681Y-4.2
X3.0681Y-4.0
X3.0681Y-4.2
X3.1681Y-4.0
X3.1681Y-4.2
X3.2681Y-4.0
X3.2681Y-4.2
X3.3681Y-4.0
X3.3681Y-4.2
X3.4681Y-4.0
X3.4681Y-4.2
X3.5681Y-4.0
X3.5681Y-4.2
X3.6681Y-4.0
X3.6681Y-4.2
X3.7681Y-4.0
X3.7681Y-4.2
X3.8681Y-4.0
X3.8681Y-4.2
X3.9681Y-4.0
X3.9681Y-4.2
X4.0681Y-4.0
X4.0681Y-4.2
X4.1681Y-4.0
X4.1681Y-4.2
X4.2681Y-4.0
X4.2681Y-4.2
X4.3681Y-4.0
X4.3681Y-4.2
X4.4681Y-4.0
X4.4681Y-4.2
X4.5681Y-4.0
X4.5681Y-4.2
X4.6681Y-4.0
X4.6681Y-4.2
X4.7681Y-4.0
X4.7681Y-4.2
X4.8681Y-4.0
X4.8681Y-4.2
X4.9681Y-4.0
X4.9681Y-4.2
X5.0681Y-4.0
X5.0681Y-4.2
X5.1681Y-4.0
X5.1681Y-4.2
X5.2681Y-4.0
X5.2681Y-4.2
X5.3681Y-4.0
X5.3681Y-4.2
X5.4681Y-4.0
X5.4681Y-4.2
X5.5681Y-4.0
X5.5681Y-4.2
X5.6681Y-4.0
X5.6681Y-4.2
X5.7681Y-4.0
X5.7681Y-4.2
X5.8681Y-4.0
X5.8681Y-4.2
X5.9681Y-4.0
X5.9681Y-4.2
X6.3671Y-2.7559
X6.3681Y-4.0
X6.3681Y-4.2
X6.4671Y-2.7559
X6.4681Y-4.0
X6.4681Y-4.2
X6.5681Y-4.0
X6.5681Y-4.2
X6.6681Y-4.0
X6.6681Y-4.2
X6.7681Y-4.0
X6.7681Y-4.2
X6.8681Y-4.0
X6.8681Y-4.2
X6.9681Y-4.0
X6.9681Y-4.2
X7.0681Y-4.0
X7.0681Y-4.2
X7.1681Y-4.0
X7.1681Y-4.2
X7.2681Y-4.0
X7.2681Y-4.2
X7.3681Y-4.0
X7.3681Y-4.2
X7.4681Y-4.0
X7.4681Y-4.2
X7.5681Y-4.0
X7.5681Y-4.2
X7.6681Y-4.0
X7.6681Y-4.2
X7.7681Y-4.0
X7.7681Y-4.2
X7.8681Y-4.0
X7.8681Y-4.2
X7.9681Y-4.0
X7.9681Y-4.2
X8.0681Y-4.0
X8.0681Y-4.2
X8.1555Y-3.2202
X8.1555Y-3.3202
X8.2555Y-3.2202
X8.2555Y-3.3202
X8.3555Y-3.2202
X8.3555Y-3.3202
X8.4555Y-3.2202
X8.4555Y-3.3202
X8.5555Y-3.2202
X8.5555Y-3.3202
X8.6555Y-3.2202
X8.6555Y-3.3202
X8.7555Y-3.2202
X8.7555Y-3.3202
X8.7953Y-3.92
X8.7953Y-4.04
X8.7953Y-4.1791
X8.7953Y-4.3091
X8.8555Y-3.2202
X8.8555Y-3.3202
X8.9353Y-3.92
X8.9353Y-4.04
X8.9353Y-4.18
X8.9353Y-4.31
X8.9555Y-3.2202
X8.9555Y-3.3202
X9.0555Y-3.2202
X9.0555Y-3.3202
X9.0753Y-3.95
X9.0753Y-4.07
X9.0753Y-4.2791
X9.2203Y-4.2791
X9.3453Y-4.0631
X9.3503Y-4.22
T4
X4.1187Y-2.7854
X4.1187Y-3.002
X4.284Y-2.7854
X4.284Y-3.002
X4.4494Y-2.7854
X4.4494Y-3.002
X4.6147Y-2.7854
X4.6147Y-3.002
X4.7801Y-2.7854
X4.7801Y-3.002
X4.9454Y-2.7854
X4.9454Y-3.002
X5.1108Y-2.7854
X5.1108Y-3.002
X5.2761Y-2.7854
X5.2761Y-3.002
X5.4415Y-2.7854
X5.4415Y-3.002
X5.6069Y-2.7854
X5.6069Y-3.002
X5.7722Y-2.7854
X5.7722Y-3.002
X5.9376Y-2.7854
X5.9376Y-3.002
T5
X2.5591Y-2.7165
X2.5591Y-5.1969
X9.8425Y-2.7165
X9.8425Y-5.1969
T0
M30
