M48
; DRILL file {KiCad 8.0.1} date 2025-01-30T19:55:34+0000
; FORMAT={-:-/ absolute / inch / decimal}
; #@! TF.CreationDate,2025-01-30T19:55:34+00:00
; #@! TF.GenerationSoftware,Kicad,Pcbnew,8.0.1
; #@! TF.FileFunction,Plated,1,2,PTH
FMAT,2
INCH
; #@! TA.AperFunction,Plated,PTH,ViaDrill
T1C0.0118
; #@! TA.AperFunction,Plated,PTH,ViaDrill
T2C0.0157
; #@! TA.AperFunction,Plated,PTH,ComponentDrill
T3C0.0315
; #@! TA.AperFunction,Plated,PTH,ComponentDrill
T4C0.0394
; #@! TA.AperFunction,Plated,PTH,ComponentDrill
T5C0.0433
; #@! TA.AperFunction,Plated,PTH,ComponentDrill
T6C0.0551
; #@! TA.AperFunction,Plated,PTH,ComponentDrill
T7C0.1693
%
G90
G05
T1
X2.9648Y-5.0911
X3.0548Y-5.1931
X3.7368Y-4.7703
X3.7682Y-4.7583
X3.7968Y-4.7463
X3.8272Y-4.7343
X3.8568Y-4.7223
X3.8868Y-4.7103
X3.9139Y-4.6983
X3.9411Y-4.6775
X4.0628Y-4.6743
X4.0878Y-4.6381
X4.7408Y-4.5452
X4.7708Y-4.5332
X4.8008Y-4.5212
X4.8128Y-4.8391
X4.8308Y-4.5092
X4.8578Y-4.497
X4.8874Y-4.4852
X4.9208Y-4.4732
X4.9496Y-4.4612
X4.9764Y-4.4485
X4.9988Y-4.8271
X5.0036Y-4.4369
X5.0344Y-4.4252
X5.0648Y-4.4132
X5.9594Y-4.389
X5.9821Y-4.3596
X6.0115Y-4.3476
X6.0425Y-4.3343
X6.0713Y-4.3236
X6.1008Y-4.3094
X6.1081Y-4.0471
X6.1081Y-4.1491
X6.1088Y-4.6051
X6.1261Y-4.294
X6.1264Y-4.2398
X6.1328Y-3.6631
X6.1328Y-3.8671
X6.2528Y-3.6631
X6.3068Y-4.5991
X6.3488Y-4.0471
X6.3548Y-3.8671
X6.3788Y-4.2271
X6.4328Y-3.45
X6.5268Y-4.0209
X6.5278Y-5.3531
X6.5298Y-4.1561
X6.5708Y-3.4471
X6.5808Y-4.3209
X6.5828Y-3.8531
X6.5888Y-4.4191
X6.6128Y-5.3481
X6.6243Y-4.9905
X6.7008Y-4.506
X6.785Y-3.9393
X6.785Y-4.0367
X6.7859Y-4.1376
X6.7868Y-3.8851
X6.7868Y-4.1971
X6.7878Y-3.7981
X6.8108Y-4.5511
X6.8228Y-4.2931
X6.8408Y-3.5431
X6.8828Y-4.3031
X6.9128Y-3.7931
X6.9668Y-4.7551
X6.9828Y-3.4831
X6.9908Y-4.8008
X7.0178Y-4.3031
X7.0192Y-4.8092
X7.0225Y-4.7343
X7.0528Y-3.7931
X7.0548Y-4.578
X7.0628Y-3.5251
X7.0688Y-3.4891
X7.0928Y-3.4651
X7.1328Y-3.7931
X7.1628Y-3.5331
X7.1628Y-4.3031
X7.1683Y-4.6445
X7.1928Y-3.438
X7.1928Y-3.7931
X7.1928Y-4.5531
X7.1928Y-4.698
X7.2013Y-4.8515
X7.2168Y-4.668
X7.2248Y-4.3051
X7.2728Y-3.4231
X7.3078Y-3.7931
X7.3389Y-3.5601
X7.3628Y-3.4411
X7.3772Y-4.3051
X7.3928Y-3.4591
X7.4028Y-3.7931
X7.4168Y-3.4772
X7.4528Y-3.6571
X7.4588Y-3.7951
X7.5048Y-4.83
X7.5128Y-4.3051
X7.5228Y-3.9831
X7.5228Y-4.0931
X7.5248Y-3.9151
X7.5248Y-4.2131
X7.6848Y-4.41
X7.7528Y-4.3531
X7.7528Y-4.6431
X7.8228Y-4.188
X7.8328Y-4.5431
X7.8348Y-3.8229
X7.8348Y-3.9489
X7.8528Y-4.4181
X7.8828Y-4.3869
X7.8878Y-4.5081
X7.8888Y-3.9729
X7.8978Y-4.0831
X7.9128Y-4.4181
X7.9368Y-4.1829
X8.0378Y-4.7081
X8.0678Y-4.2531
X8.0878Y-4.1931
X8.2128Y-4.1981
X8.2128Y-4.7081
X8.2478Y-4.5131
X8.3808Y-4.428
X8.3809Y-4.0579
X8.3809Y-4.1179
X8.3809Y-4.3039
X8.3809Y-4.3647
X8.3824Y-4.2454
X8.3948Y-4.1851
X8.4013Y-3.9893
X8.4128Y-4.3938
X8.4229Y-4.0279
X8.4229Y-4.0879
X8.4229Y-4.1539
X8.4229Y-4.2139
X8.4229Y-4.3339
X8.4282Y-3.9631
X8.4287Y-4.2792
X8.4548Y-4.4311
X8.4668Y-4.6831
X8.6028Y-4.2481
X8.6148Y-4.662
T2
X3.0978Y-4.275
X3.2087Y-4.2815
X3.4928Y-4.4631
X3.5528Y-4.5731
X3.6528Y-4.2131
X3.8728Y-4.8681
X3.9428Y-4.8681
X4.0978Y-4.35
X4.1318Y-4.8741
X4.1535Y-4.3307
X4.3528Y-4.2231
X4.6828Y-4.2131
X5.6102Y-4.1043
X5.6594Y-4.1732
X5.7776Y-3.4547
X5.8366Y-4.311
X6.3189Y-3.435
X6.5468Y-3.7471
T3
X3.1496Y-3.8976
X3.1496Y-3.9961
X3.622Y-3.8976
X3.622Y-3.9961
X4.0354Y-3.8976
X4.0354Y-3.9961
X4.4291Y-3.8976
X4.4291Y-3.9961
X5.7188Y-3.2881
X5.7188Y-3.3865
T4
X3.3228Y-5.0831
X3.3228Y-5.2831
X3.4228Y-5.0831
X3.4228Y-5.2831
X3.5228Y-5.0831
X3.5228Y-5.2831
X3.6228Y-5.0831
X3.6228Y-5.2831
X3.7228Y-5.0831
X3.7228Y-5.2831
X3.8228Y-5.0831
X3.8228Y-5.2831
X3.9228Y-5.0831
X3.9228Y-5.2831
X4.0228Y-5.0831
X4.0228Y-5.2831
X4.1228Y-5.0831
X4.1228Y-5.2831
X4.2228Y-5.0831
X4.2228Y-5.2831
X4.3228Y-5.0831
X4.3228Y-5.2831
X4.4228Y-5.0831
X4.4228Y-5.2831
X4.5228Y-5.0831
X4.5228Y-5.2831
X4.6228Y-5.0831
X4.6228Y-5.2831
X4.7228Y-5.0831
X4.7228Y-5.2831
X4.8228Y-5.0831
X4.8228Y-5.2831
X4.9228Y-5.0831
X4.9228Y-5.2831
X5.0228Y-5.0831
X5.0228Y-5.2831
X5.1228Y-5.0831
X5.1228Y-5.2831
X5.2228Y-5.0831
X5.2228Y-5.2831
X5.3228Y-5.0831
X5.3228Y-5.2831
X5.4226Y-3.62
X5.4228Y-5.0831
X5.4228Y-5.2831
X5.5226Y-3.62
X5.5228Y-5.0831
X5.5228Y-5.2831
X5.6228Y-5.0831
X5.6228Y-5.2831
X5.7228Y-5.0831
X5.7228Y-5.2831
X5.8228Y-5.0831
X5.8228Y-5.2831
X5.9228Y-5.0831
X5.9228Y-5.2831
X6.0228Y-5.0831
X6.0228Y-5.2831
X6.1228Y-5.0831
X6.1228Y-5.2831
X6.2228Y-5.0831
X6.2228Y-5.2831
X6.3228Y-5.0831
X6.3228Y-5.2831
X6.7228Y-5.0831
X6.7228Y-5.2831
X6.8228Y-5.0831
X6.8228Y-5.2831
X6.881Y-3.2502
X6.881Y-3.3502
X6.9228Y-5.0831
X6.9228Y-5.2831
X6.981Y-3.2502
X6.981Y-3.3502
X7.0228Y-5.0831
X7.0228Y-5.2831
X7.081Y-3.2502
X7.081Y-3.3502
X7.1228Y-5.0831
X7.1228Y-5.2831
X7.181Y-3.2502
X7.181Y-3.3502
X7.2228Y-5.0831
X7.2228Y-5.2831
X7.281Y-3.2502
X7.281Y-3.3502
X7.3228Y-5.0831
X7.3228Y-5.2831
X7.381Y-3.2502
X7.381Y-3.3502
X7.4228Y-5.0831
X7.4228Y-5.2831
X7.481Y-3.2502
X7.481Y-3.3502
X7.5228Y-5.0831
X7.5228Y-5.2831
X7.581Y-3.2502
X7.581Y-3.3502
X7.6228Y-5.0831
X7.6228Y-5.2831
X7.681Y-3.2502
X7.681Y-3.3502
X7.7228Y-5.0831
X7.7228Y-5.2831
X7.781Y-3.2502
X7.781Y-3.3502
X7.8228Y-5.0831
X7.8228Y-5.2831
X7.9228Y-5.0831
X7.9228Y-5.2831
X8.0228Y-5.0831
X8.0228Y-5.2831
X8.1228Y-5.0831
X8.1228Y-5.2831
X8.2228Y-5.0831
X8.2228Y-5.2831
X8.3228Y-5.0831
X8.3228Y-5.2831
X8.4228Y-5.0831
X8.4228Y-5.2831
T5
X3.41Y-3.9631
X3.41Y-4.0631
X3.41Y-4.1631
T6
X3.2054Y-3.3794
X3.2054Y-3.596
X3.3707Y-3.3794
X3.3707Y-3.596
X3.5361Y-3.3794
X3.5361Y-3.596
X3.7014Y-3.3794
X3.7014Y-3.596
X3.8668Y-3.3794
X3.8668Y-3.596
X4.0322Y-3.3794
X4.0322Y-3.596
X4.1975Y-3.3794
X4.1975Y-3.596
X4.3629Y-3.3794
X4.3629Y-3.596
X4.5282Y-3.3794
X4.5282Y-3.596
X4.6936Y-3.3794
X4.6936Y-3.596
X4.8589Y-3.3794
X4.8589Y-3.596
X5.0243Y-3.3794
X5.0243Y-3.596
T7
X2.7228Y-3.2831
X2.7228Y-4.0831
X2.7228Y-4.7831
X2.7228Y-5.1831
X8.8208Y-4.0831
X8.8228Y-3.2831
X8.8228Y-4.7831
X8.8228Y-5.1831
M30
