%TF.GenerationSoftware,KiCad,Pcbnew,8.0.1*%
%TF.CreationDate,2025-01-30T19:54:38+00:00*%
%TF.ProjectId,disappointment,64697361-7070-46f6-996e-746d656e742e,rev?*%
%TF.SameCoordinates,Original*%
%TF.FileFunction,Soldermask,Top*%
%TF.FilePolarity,Negative*%
%FSLAX46Y46*%
G04 Gerber Fmt 4.6, Leading zero omitted, Abs format (unit mm)*
G04 Created by KiCad (PCBNEW 8.0.1) date 2025-01-30 19:54:38*
%MOMM*%
%LPD*%
G01*
G04 APERTURE LIST*
G04 Aperture macros list*
%AMRoundRect*
0 Rectangle with rounded corners*
0 $1 Rounding radius*
0 $2 $3 $4 $5 $6 $7 $8 $9 X,Y pos of 4 corners*
0 Add a 4 corners polygon primitive as box body*
4,1,4,$2,$3,$4,$5,$6,$7,$8,$9,$2,$3,0*
0 Add four circle primitives for the rounded corners*
1,1,$1+$1,$2,$3*
1,1,$1+$1,$4,$5*
1,1,$1+$1,$6,$7*
1,1,$1+$1,$8,$9*
0 Add four rect primitives between the rounded corners*
20,1,$1+$1,$2,$3,$4,$5,0*
20,1,$1+$1,$4,$5,$6,$7,0*
20,1,$1+$1,$6,$7,$8,$9,0*
20,1,$1+$1,$8,$9,$2,$3,0*%
G04 Aperture macros list end*
%ADD10C,7.500000*%
%ADD11R,1.600000X1.600000*%
%ADD12C,1.600000*%
%ADD13R,0.900000X0.400000*%
%ADD14RoundRect,0.250000X0.625000X-0.400000X0.625000X0.400000X-0.625000X0.400000X-0.625000X-0.400000X0*%
%ADD15RoundRect,0.250000X0.375000X0.625000X-0.375000X0.625000X-0.375000X-0.625000X0.375000X-0.625000X0*%
%ADD16RoundRect,0.250000X0.650000X-0.325000X0.650000X0.325000X-0.650000X0.325000X-0.650000X-0.325000X0*%
%ADD17RoundRect,0.250000X-0.325000X-0.650000X0.325000X-0.650000X0.325000X0.650000X-0.325000X0.650000X0*%
%ADD18RoundRect,0.250000X-0.625000X0.375000X-0.625000X-0.375000X0.625000X-0.375000X0.625000X0.375000X0*%
%ADD19O,0.300000X1.800000*%
%ADD20O,1.800000X0.300000*%
%ADD21RoundRect,0.250000X-0.400000X-0.625000X0.400000X-0.625000X0.400000X0.625000X-0.400000X0.625000X0*%
%ADD22R,1.700000X1.700000*%
%ADD23O,1.700000X1.700000*%
%ADD24RoundRect,0.250000X0.400000X0.625000X-0.400000X0.625000X-0.400000X-0.625000X0.400000X-0.625000X0*%
%ADD25RoundRect,0.250000X-0.375000X-0.625000X0.375000X-0.625000X0.375000X0.625000X-0.375000X0.625000X0*%
%ADD26RoundRect,0.250000X-0.625000X0.400000X-0.625000X-0.400000X0.625000X-0.400000X0.625000X0.400000X0*%
%ADD27R,0.400000X0.900000*%
%ADD28O,1.500000X3.000000*%
%ADD29R,2.000000X1.905000*%
%ADD30O,2.000000X1.905000*%
%ADD31RoundRect,0.250001X1.099999X1.399999X-1.099999X1.399999X-1.099999X-1.399999X1.099999X-1.399999X0*%
%ADD32O,2.700000X3.300000*%
%ADD33RoundRect,0.250000X0.325000X0.650000X-0.325000X0.650000X-0.325000X-0.650000X0.325000X-0.650000X0*%
G04 APERTURE END LIST*
D10*
%TO.C,*%
X224049200Y-103710000D03*
%TD*%
D11*
%TO.C,C15*%
X80000000Y-99000000D03*
D12*
X80000000Y-101500000D03*
%TD*%
D13*
%TO.C,RN10*%
X168132000Y-87496800D03*
X168132000Y-88296800D03*
X168132000Y-89096800D03*
X168132000Y-89896800D03*
X169832000Y-89896800D03*
X169832000Y-89096800D03*
X169832000Y-88296800D03*
X169832000Y-87496800D03*
%TD*%
D14*
%TO.C,R17*%
X116404000Y-124056000D03*
X116404000Y-120956000D03*
%TD*%
%TO.C,R8*%
X102180000Y-117198000D03*
X102180000Y-114098000D03*
%TD*%
%TO.C,R19*%
X109292000Y-124056000D03*
X109292000Y-120956000D03*
%TD*%
D15*
%TO.C,D1*%
X102310000Y-109044000D03*
X99510000Y-109044000D03*
%TD*%
D10*
%TO.C,*%
X69160000Y-131650000D03*
%TD*%
D14*
%TO.C,R18*%
X113102000Y-124056000D03*
X113102000Y-120956000D03*
%TD*%
D16*
%TO.C,C8*%
X167305600Y-108155000D03*
X167305600Y-105205000D03*
%TD*%
D13*
%TO.C,RN7*%
X215426800Y-101290800D03*
X215426800Y-102090800D03*
X215426800Y-102890800D03*
X215426800Y-103690800D03*
X217126800Y-103690800D03*
X217126800Y-102890800D03*
X217126800Y-102090800D03*
X217126800Y-101290800D03*
%TD*%
D11*
%TO.C,C16*%
X145258400Y-86017513D03*
D12*
X145258400Y-83517513D03*
%TD*%
D11*
%TO.C,C19*%
X102500000Y-99000000D03*
D12*
X102500000Y-101500000D03*
%TD*%
D13*
%TO.C,RN8*%
X215426800Y-105072105D03*
X215426800Y-105872105D03*
X215426800Y-106672105D03*
X215426800Y-107472105D03*
X217126800Y-107472105D03*
X217126800Y-106672105D03*
X217126800Y-105872105D03*
X217126800Y-105072105D03*
%TD*%
%TO.C,RN16*%
X215426800Y-108882105D03*
X215426800Y-109682105D03*
X215426800Y-110482105D03*
X215426800Y-111282105D03*
X217126800Y-111282105D03*
X217126800Y-110482105D03*
X217126800Y-109682105D03*
X217126800Y-108882105D03*
%TD*%
D17*
%TO.C,C4*%
X179902200Y-114147600D03*
X182852200Y-114147600D03*
%TD*%
D18*
%TO.C,F6*%
X75002000Y-96010800D03*
X75002000Y-98810800D03*
%TD*%
D16*
%TO.C,C1*%
X196617200Y-109171000D03*
X196617200Y-106221000D03*
%TD*%
D13*
%TO.C,RN3*%
X159953200Y-91764000D03*
X159953200Y-92564000D03*
X159953200Y-93364000D03*
X159953200Y-94164000D03*
X161653200Y-94164000D03*
X161653200Y-93364000D03*
X161653200Y-92564000D03*
X161653200Y-91764000D03*
%TD*%
D19*
%TO.C,U1*%
X190881200Y-94670001D03*
X190381200Y-94670001D03*
X189881200Y-94670001D03*
X189381200Y-94670001D03*
X188881200Y-94670001D03*
X188381200Y-94670001D03*
X187881200Y-94670001D03*
X187381200Y-94670001D03*
X186881200Y-94670001D03*
X186381200Y-94670001D03*
X185881200Y-94670001D03*
X185381200Y-94670001D03*
X184881200Y-94670001D03*
X184381200Y-94670001D03*
X183881200Y-94670001D03*
X183381200Y-94670001D03*
X182881200Y-94670001D03*
X182381200Y-94670001D03*
X181881200Y-94670001D03*
X181381200Y-94670001D03*
X180881200Y-94670001D03*
X180381200Y-94670001D03*
X179881200Y-94670001D03*
X179381200Y-94670001D03*
X178881200Y-94670001D03*
X178381200Y-94670001D03*
X177881200Y-94670001D03*
X177381200Y-94670001D03*
X176881200Y-94670001D03*
X176381200Y-94670001D03*
X175881200Y-94670001D03*
X175381200Y-94670001D03*
X174881200Y-94670001D03*
X174381200Y-94670001D03*
X173881200Y-94670001D03*
X173381200Y-94670001D03*
X172881200Y-94670001D03*
X172381200Y-94670001D03*
D20*
X170431200Y-96620000D03*
X170431200Y-97120000D03*
X170431200Y-97620000D03*
X170431200Y-98120000D03*
X170431200Y-98620000D03*
X170431200Y-99120000D03*
X170431200Y-99620000D03*
X170431200Y-100120000D03*
X170431200Y-100620000D03*
X170431200Y-101120000D03*
X170431200Y-101620000D03*
X170431200Y-102120000D03*
X170431200Y-102620000D03*
X170431200Y-103120000D03*
X170431200Y-103620000D03*
X170431200Y-104120000D03*
X170431200Y-104620000D03*
X170431200Y-105120000D03*
X170431200Y-105620000D03*
X170431200Y-106120000D03*
X170431200Y-106620000D03*
X170431200Y-107120000D03*
X170431200Y-107620000D03*
X170431200Y-108120000D03*
X170431200Y-108620000D03*
X170431200Y-109120000D03*
D19*
X172381200Y-111069999D03*
X172881200Y-111069999D03*
X173381200Y-111069999D03*
X173881200Y-111069999D03*
X174381200Y-111069999D03*
X174881200Y-111069999D03*
X175381200Y-111069999D03*
X175881200Y-111069999D03*
X176381200Y-111069999D03*
X176881200Y-111069999D03*
X177381200Y-111069999D03*
X177881200Y-111069999D03*
X178381200Y-111069999D03*
X178881200Y-111069999D03*
X179381200Y-111069999D03*
X179881200Y-111069999D03*
X180381200Y-111069999D03*
X180881200Y-111069999D03*
X181381200Y-111069999D03*
X181881200Y-111069999D03*
X182381200Y-111069999D03*
X182881200Y-111069999D03*
X183381200Y-111069999D03*
X183881200Y-111069999D03*
X184381200Y-111069999D03*
X184881200Y-111069999D03*
X185381200Y-111069999D03*
X185881200Y-111069999D03*
X186381200Y-111069999D03*
X186881200Y-111069999D03*
X187381200Y-111069999D03*
X187881200Y-111069999D03*
X188381200Y-111069999D03*
X188881200Y-111069999D03*
X189381200Y-111069999D03*
X189881200Y-111069999D03*
X190381200Y-111069999D03*
X190881200Y-111069999D03*
D20*
X192831200Y-109120000D03*
X192831200Y-108620000D03*
X192831200Y-108120000D03*
X192831200Y-107620000D03*
X192831200Y-107120000D03*
X192831200Y-106620000D03*
X192831200Y-106120000D03*
X192831200Y-105620000D03*
X192831200Y-105120000D03*
X192831200Y-104620000D03*
X192831200Y-104120000D03*
X192831200Y-103620000D03*
X192831200Y-103120000D03*
X192831200Y-102620000D03*
X192831200Y-102120000D03*
X192831200Y-101620000D03*
X192831200Y-101120000D03*
X192831200Y-100620000D03*
X192831200Y-100120000D03*
X192831200Y-99620000D03*
X192831200Y-99120000D03*
X192831200Y-98620000D03*
X192831200Y-98120000D03*
X192831200Y-97620000D03*
X192831200Y-97120000D03*
X192831200Y-96620000D03*
%TD*%
D15*
%TO.C,D4*%
X94055000Y-109044000D03*
X91255000Y-109044000D03*
%TD*%
D10*
%TO.C,*%
X69160000Y-103710000D03*
%TD*%
D21*
%TO.C,R15*%
X76957200Y-105488000D03*
X80057200Y-105488000D03*
%TD*%
D18*
%TO.C,F1*%
X97100000Y-99290400D03*
X97100000Y-102090400D03*
%TD*%
D22*
%TO.C,J3*%
X174778200Y-85095000D03*
D23*
X174778200Y-82555000D03*
X177318200Y-85095000D03*
X177318200Y-82555000D03*
X179858200Y-85095000D03*
X179858200Y-82555000D03*
X182398200Y-85095000D03*
X182398200Y-82555000D03*
X184938200Y-85095000D03*
X184938200Y-82555000D03*
X187478200Y-85095000D03*
X187478200Y-82555000D03*
X190018200Y-85095000D03*
X190018200Y-82555000D03*
X192558200Y-85095000D03*
X192558200Y-82555000D03*
X195098200Y-85095000D03*
X195098200Y-82555000D03*
X197638200Y-85095000D03*
X197638200Y-82555000D03*
%TD*%
D17*
%TO.C,C6*%
X171367800Y-114073200D03*
X174317800Y-114073200D03*
%TD*%
D13*
%TO.C,RN13*%
X201355200Y-109161200D03*
X201355200Y-109961200D03*
X201355200Y-110761200D03*
X201355200Y-111561200D03*
X203055200Y-111561200D03*
X203055200Y-110761200D03*
X203055200Y-109961200D03*
X203055200Y-109161200D03*
%TD*%
D21*
%TO.C,R16*%
X166416000Y-82804000D03*
X169516000Y-82804000D03*
%TD*%
D16*
%TO.C,C2*%
X197038813Y-100181266D03*
X197038813Y-97231266D03*
%TD*%
D13*
%TO.C,RN6*%
X162036000Y-108070800D03*
X162036000Y-108870800D03*
X162036000Y-109670800D03*
X162036000Y-110470800D03*
X163736000Y-110470800D03*
X163736000Y-109670800D03*
X163736000Y-108870800D03*
X163736000Y-108070800D03*
%TD*%
D24*
%TO.C,R13*%
X119071600Y-105335600D03*
X115971600Y-105335600D03*
%TD*%
D16*
%TO.C,C7*%
X167305600Y-102131600D03*
X167305600Y-99181600D03*
%TD*%
D13*
%TO.C,RN1*%
X202726800Y-103674800D03*
X202726800Y-104474800D03*
X202726800Y-105274800D03*
X202726800Y-106074800D03*
X204426800Y-106074800D03*
X204426800Y-105274800D03*
X204426800Y-104474800D03*
X204426800Y-103674800D03*
%TD*%
D25*
%TO.C,F4*%
X137102000Y-85953600D03*
X139902000Y-85953600D03*
%TD*%
D10*
%TO.C,REF\u002A\u002A*%
X69160000Y-121490000D03*
%TD*%
D26*
%TO.C,R7*%
X82622000Y-121436800D03*
X82622000Y-124536800D03*
%TD*%
D21*
%TO.C,R14*%
X91282800Y-105488000D03*
X94382800Y-105488000D03*
%TD*%
D27*
%TO.C,RN2*%
X195175600Y-113145200D03*
X194375600Y-113145200D03*
X193575600Y-113145200D03*
X192775600Y-113145200D03*
X192775600Y-114845200D03*
X193575600Y-114845200D03*
X194375600Y-114845200D03*
X195175600Y-114845200D03*
%TD*%
D24*
%TO.C,R2*%
X213864400Y-98985600D03*
X210764400Y-98985600D03*
%TD*%
D13*
%TO.C,RN11*%
X162950400Y-102279600D03*
X162950400Y-103079600D03*
X162950400Y-103879600D03*
X162950400Y-104679600D03*
X164650400Y-104679600D03*
X164650400Y-103879600D03*
X164650400Y-103079600D03*
X164650400Y-102279600D03*
%TD*%
D27*
%TO.C,RN12*%
X96268000Y-113782000D03*
X95468000Y-113782000D03*
X94668000Y-113782000D03*
X93868000Y-113782000D03*
X93868000Y-115482000D03*
X94668000Y-115482000D03*
X95468000Y-115482000D03*
X96268000Y-115482000D03*
%TD*%
D15*
%TO.C,D5*%
X85800000Y-110490000D03*
X83000000Y-110490000D03*
%TD*%
D13*
%TO.C,RN9*%
X179257200Y-119958000D03*
X179257200Y-120758000D03*
X179257200Y-121558000D03*
X179257200Y-122358000D03*
X180957200Y-122358000D03*
X180957200Y-121558000D03*
X180957200Y-120758000D03*
X180957200Y-119958000D03*
%TD*%
D10*
%TO.C,*%
X224100000Y-83390000D03*
%TD*%
D27*
%TO.C,RN5*%
X100230400Y-113782000D03*
X99430400Y-113782000D03*
X98630400Y-113782000D03*
X97830400Y-113782000D03*
X97830400Y-115482000D03*
X98630400Y-115482000D03*
X99430400Y-115482000D03*
X100230400Y-115482000D03*
%TD*%
%TO.C,RN15*%
X187441600Y-115607200D03*
X188241600Y-115607200D03*
X189041600Y-115607200D03*
X189841600Y-115607200D03*
X189841600Y-113907200D03*
X189041600Y-113907200D03*
X188241600Y-113907200D03*
X187441600Y-113907200D03*
%TD*%
%TO.C,RN17*%
X118760000Y-123989200D03*
X119560000Y-123989200D03*
X120360000Y-123989200D03*
X121160000Y-123989200D03*
X121160000Y-122289200D03*
X120360000Y-122289200D03*
X119560000Y-122289200D03*
X118760000Y-122289200D03*
%TD*%
D15*
%TO.C,D3*%
X118820000Y-109044000D03*
X116020000Y-109044000D03*
%TD*%
D24*
%TO.C,R1*%
X213864400Y-96242400D03*
X210764400Y-96242400D03*
%TD*%
D14*
%TO.C,R10*%
X199462000Y-123548000D03*
X199462000Y-120448000D03*
%TD*%
D10*
%TO.C,*%
X69160000Y-83390000D03*
%TD*%
D28*
%TO.C,J1*%
X84400000Y-134190000D03*
X86940000Y-134190000D03*
X89480000Y-134190000D03*
X92020000Y-134190000D03*
X94560000Y-134190000D03*
X97100000Y-134190000D03*
X99640000Y-134190000D03*
X102180000Y-134190000D03*
X104720000Y-134190000D03*
X107260000Y-134190000D03*
X109800000Y-134190000D03*
X112340000Y-134190000D03*
X114880000Y-134190000D03*
X117420000Y-134190000D03*
X119960000Y-134190000D03*
X122500000Y-134190000D03*
X125040000Y-134190000D03*
X127580000Y-134190000D03*
X130120000Y-134190000D03*
X132660000Y-134190000D03*
X135200000Y-134190000D03*
X137740000Y-134190000D03*
X140280000Y-134190000D03*
X142820000Y-134190000D03*
X145360000Y-134190000D03*
X147900000Y-134190000D03*
X150440000Y-134190000D03*
X152980000Y-134190000D03*
X155520000Y-134190000D03*
X158060000Y-134190000D03*
X160600000Y-134190000D03*
X84400000Y-129110000D03*
X86940000Y-129110000D03*
X89480000Y-129110000D03*
X92020000Y-129110000D03*
X94560000Y-129110000D03*
X97100000Y-129110000D03*
X99640000Y-129110000D03*
X102180000Y-129110000D03*
X104720000Y-129110000D03*
X107260000Y-129110000D03*
X109800000Y-129110000D03*
X112340000Y-129110000D03*
X114880000Y-129110000D03*
X117420000Y-129110000D03*
X119960000Y-129110000D03*
X122500000Y-129110000D03*
X125040000Y-129110000D03*
X127580000Y-129110000D03*
X130120000Y-129110000D03*
X132660000Y-129110000D03*
X135200000Y-129110000D03*
X137740000Y-129110000D03*
X140280000Y-129110000D03*
X142820000Y-129110000D03*
X145360000Y-129110000D03*
X147900000Y-129110000D03*
X150440000Y-129110000D03*
X152980000Y-129110000D03*
X155520000Y-129110000D03*
X158060000Y-129110000D03*
X160600000Y-129110000D03*
X170760000Y-134190000D03*
X173300000Y-134190000D03*
X175840000Y-134190000D03*
X178380000Y-134190000D03*
X180920000Y-134190000D03*
X183460000Y-134190000D03*
X186000000Y-134190000D03*
X188540000Y-134190000D03*
X191080000Y-134190000D03*
X193620000Y-134190000D03*
X196160000Y-134190000D03*
X198700000Y-134190000D03*
X201240000Y-134190000D03*
X203780000Y-134190000D03*
X206320000Y-134190000D03*
X208860000Y-134190000D03*
X211400000Y-134190000D03*
X213940000Y-134190000D03*
X170760000Y-129110000D03*
X173300000Y-129110000D03*
X175840000Y-129110000D03*
X178380000Y-129110000D03*
X180920000Y-129110000D03*
X183460000Y-129110000D03*
X186000000Y-129110000D03*
X188540000Y-129110000D03*
X191080000Y-129110000D03*
X193620000Y-129110000D03*
X196160000Y-129110000D03*
X198700000Y-129110000D03*
X201240000Y-129110000D03*
X203780000Y-129110000D03*
X206320000Y-129110000D03*
X208860000Y-129110000D03*
X211400000Y-129110000D03*
X213940000Y-129110000D03*
%TD*%
D10*
%TO.C,*%
X224100000Y-131650000D03*
%TD*%
D18*
%TO.C,F2*%
X107260000Y-99160400D03*
X107260000Y-101960400D03*
%TD*%
D27*
%TO.C,RN18*%
X94503000Y-125134000D03*
X95303000Y-125134000D03*
X96103000Y-125134000D03*
X96903000Y-125134000D03*
X96903000Y-123434000D03*
X96103000Y-123434000D03*
X95303000Y-123434000D03*
X94503000Y-123434000D03*
%TD*%
D15*
%TO.C,D2*%
X110565000Y-109044000D03*
X107765000Y-109044000D03*
%TD*%
D11*
%TO.C,C17*%
X92000000Y-99000000D03*
D12*
X92000000Y-101500000D03*
%TD*%
D24*
%TO.C,R11*%
X102155200Y-105488000D03*
X99055200Y-105488000D03*
%TD*%
D21*
%TO.C,R5*%
X164739600Y-93499200D03*
X167839600Y-93499200D03*
%TD*%
D17*
%TO.C,C3*%
X181934200Y-91186000D03*
X184884200Y-91186000D03*
%TD*%
D22*
%TO.C,J2*%
X137735000Y-91948000D03*
D23*
X140275000Y-91948000D03*
%TD*%
D14*
%TO.C,R6*%
X215057600Y-117147200D03*
X215057600Y-114047200D03*
%TD*%
D11*
%TO.C,C18*%
X112500000Y-99000000D03*
D12*
X112500000Y-101500000D03*
%TD*%
D10*
%TO.C,*%
X224100000Y-121490000D03*
%TD*%
D13*
%TO.C,RN14*%
X201355200Y-98622000D03*
X201355200Y-99422000D03*
X201355200Y-100222000D03*
X201355200Y-101022000D03*
X203055200Y-101022000D03*
X203055200Y-100222000D03*
X203055200Y-99422000D03*
X203055200Y-98622000D03*
%TD*%
D24*
%TO.C,R12*%
X110537200Y-105488000D03*
X107437200Y-105488000D03*
%TD*%
D14*
%TO.C,R9*%
X202383000Y-123548000D03*
X202383000Y-120448000D03*
%TD*%
D29*
%TO.C,U2*%
X86615000Y-105742000D03*
D30*
X86615000Y-103202000D03*
X86615000Y-100662000D03*
%TD*%
D31*
%TO.C,J5*%
X127616800Y-91337200D03*
D32*
X123416800Y-91337200D03*
X119216800Y-91337200D03*
X115016800Y-91337200D03*
X110816800Y-91337200D03*
X106616800Y-91337200D03*
X102416800Y-91337200D03*
X98216800Y-91337200D03*
X94016800Y-91337200D03*
X89816800Y-91337200D03*
X85616800Y-91337200D03*
X81416800Y-91337200D03*
X127616800Y-85837200D03*
X123416800Y-85837200D03*
X119216800Y-85837200D03*
X115016800Y-85837200D03*
X110816800Y-85837200D03*
X106616800Y-85837200D03*
X102416800Y-85837200D03*
X98216800Y-85837200D03*
X94016800Y-85837200D03*
X89816800Y-85837200D03*
X85616800Y-85837200D03*
X81416800Y-85837200D03*
%TD*%
D13*
%TO.C,RN4*%
X162950400Y-97098000D03*
X162950400Y-97898000D03*
X162950400Y-98698000D03*
X162950400Y-99498000D03*
X164650400Y-99498000D03*
X164650400Y-98698000D03*
X164650400Y-97898000D03*
X164650400Y-97098000D03*
%TD*%
D33*
%TO.C,C5*%
X178534200Y-91158800D03*
X175584200Y-91158800D03*
%TD*%
M02*
